<svg width="100" height="100" viewBox="5 0 10 20" fill="none" xmlns="http://www.w3.org/2000/svg"><path d="M6.035 9.236C6.41 7.84 7.843 6.407 9.237 6.034l8.695-2.33c1.395-.374 2.223.453 1.849 1.848l-2.33 8.695c-.374 1.395-1.808 2.828-3.203 3.202l-8.694 2.33c-1.395.374-2.223-.454-1.849-1.848z" fill="#9DC4F8"/><path d="M2.55 5.75c.373-1.395 1.807-2.828 3.201-3.202l8.695-2.33c1.395-.374 2.223.453 1.849 1.848l-2.33 8.695c-.374 1.395-1.808 2.828-3.202 3.202l-8.695 2.33c-1.395.374-2.223-.454-1.849-1.848z" fill="#406AFF"/></svg>